HIERARCHY
ROOT Hips
{
     OFFSET 17.66300 96.34450 -41.11140
     CHANNELS 6 Xposition Yposition Zposition Zrotation Xrotation Yrotation
     JOINT Spine
     {
          OFFSET 0.00000 11.89050 0.00000
          CHANNELS 3 Zrotation Xrotation Yrotation
          JOINT Spine1
          {
               OFFSET 0.00000 25.65740 0.12766
               CHANNELS 3 Zrotation Xrotation Yrotation
               JOINT HEad
               {
                    OFFSET 0.00000 8.73416 0.01134
                    CHANNELS 3 Zrotation Xrotation Yrotation
                    End Site
                    {
                         OFFSET -0.29000 12.77420 2.51395
                    }
               }
               JOINT LeftShoulder1
               {
                    OFFSET 8.99000 -0.36225 -0.22000
                    CHANNELS 3 Zrotation Xrotation Yrotation
                    JOINT LeftArm
                    {
                         OFFSET 10.28270 -0.00338 0.32212
                         CHANNELS 3 Zrotation Xrotation Yrotation
                         JOINT LeftForeArm
                         {
                              OFFSET 32.76690 0.09914 -1.42434
                              CHANNELS 3 Zrotation Xrotation Yrotation
                              JOINT LeftHand
                              {
                                   OFFSET 27.56430 0.08536 1.02216
                                   CHANNELS 3 Zrotation Xrotation Yrotation
                                   End Site
                                   {
                                        OFFSET 16.74430 -0.60000 1.50291
                                   }
                              }
                         }
                    }
               }
               JOINT RightShoulder
               {
                    OFFSET -8.99000 -0.36225 -0.22000
                    CHANNELS 3 Zrotation Xrotation Yrotation
                    JOINT RightArm
                    {
                         OFFSET -10.28270 -0.00338 0.32212
                         CHANNELS 3 Zrotation Xrotation Yrotation
                         JOINT RightForeArm
                         {
                              OFFSET -32.89710 0.09914 -1.42434
                              CHANNELS 3 Zrotation Xrotation Yrotation
                              JOINT RightHand
                              {
                                   OFFSET -27.49210 0.08536 1.02216
                                   CHANNELS 3 Zrotation Xrotation Yrotation
                                   End Site
                                   {
                                        OFFSET -16.63120 -0.60000 1.50291
                                   }
                              }
                         }
                    }
               }
          }
     }
     JOINT LeftUpLeg
     {
          OFFSET 8.94580 -8.66707 0.10165
          CHANNELS 3 Zrotation Xrotation Yrotation
          JOINT LeftLeg
          {
               OFFSET 0.00000 -44.42270 1.37270
               CHANNELS 3 Zrotation Xrotation Yrotation
               JOINT LeftFoot
               {
                    OFFSET -0.25355 -42.09240 -1.46059
                    CHANNELS 3 Zrotation Xrotation Yrotation
                    JOINT LeftToes
                    {
                         OFFSET -0.04000 -4.41509 8.49910
                         CHANNELS 3 Zrotation Xrotation Yrotation
                         End Site
                         {
                              OFFSET 0.08000 -0.04745 9.77979
                         }
                    }
               }
          }
     }
     JOINT RightUpLeg
     {
          OFFSET -8.94580 -8.66707 0.10165
          CHANNELS 3 Zrotation Xrotation Yrotation
          JOINT RightLeg
          {
               OFFSET 0.00000 -44.42270 1.37270
               CHANNELS 3 Zrotation Xrotation Yrotation
               JOINT RightFoot
               {
                    OFFSET 0.25355 -42.09240 -1.46059
                    CHANNELS 3 Zrotation Xrotation Yrotation
                    JOINT RightToes
                    {
                         OFFSET 0.04000 -4.41509 8.49910
                         CHANNELS 3 Zrotation Xrotation Yrotation
                         End Site
                         {
                              OFFSET -0.08000 -0.13745 9.77979
                         }
                    }
               }
          }
     }
}
MOTION
Frames: 8
Frame Time: 0.01667
17.66300 96.34450 -41.11140 -7.92846 -10.28520 -30.61090 4.83307 5.47566 -0.41187 2.18375 11.62300 0.19508 -3.50628 -7.06923 11.14320 0.00000 0.00000 0.00000 -80.22210 -39.25740 -60.09290 3.24902 25.76960 -82.29710 39.90810 11.93480 10.14060 14.40900 0.97171 3.07561 75.61550 -11.77660 73.95550 5.89779 32.00730 101.26000 -2.88994 9.73091 4.78571 21.24920 -9.32889 3.95209 -4.90777 18.25640 13.27890 -3.48282 -4.93499 0.09743 -3.09446 -4.21315 -0.51234 -6.20140 0.87375 -3.11496 4.36003 37.68840 -6.00736 7.73648 -31.03030 1.32951 6.12329 22.25730 -14.95500 
17.89550 96.15380 -40.52450 -8.11472 -10.18880 -30.70950 4.90111 5.45424 -0.46026 2.14626 11.59870 0.14707 -3.71654 -6.87529 11.26100 0.00000 0.00000 0.00000 -80.63200 -39.48720 -60.47900 3.03860 25.81280 -82.31210 39.81740 11.93080 10.14360 14.40210 0.97887 3.11918 75.81800 -11.63480 73.91910 5.74867 32.08670 101.12700 -2.72049 9.74548 4.71226 20.94440 -9.19615 4.45018 -4.21819 18.36130 11.32630 -3.95329 -4.16533 0.13063 -3.75024 -4.72176 -1.48205 -6.28352 0.90736 -3.02805 4.26311 38.09140 -5.88923 7.69787 -31.03980 1.32184 5.87706 21.59690 -14.94590 
18.17930 95.95140 -39.90110 -8.30711 -10.12490 -30.86190 4.96449 5.45392 -0.50647 2.11544 11.61270 0.10287 -3.82830 -6.67551 11.42290 0.00000 0.00000 0.00000 -80.73330 -39.51740 -60.72550 2.79086 25.65500 -82.09050 40.04600 11.87680 9.95301 14.37900 0.97992 3.13130 75.99210 -11.50150 73.81850 5.52928 32.12330 101.06600 -2.52680 9.76129 4.66508 20.71180 -9.16189 4.84567 -3.72990 18.79440 9.70105 -4.60182 -3.09648 0.18701 -4.52000 -5.23464 -2.74865 -6.42560 0.93766 -2.98730 4.07169 38.52640 -5.63580 7.72328 -30.90040 1.31787 5.51865 20.65170 -14.84160 
18.50620 95.75850 -39.24680 -8.48089 -10.07340 -31.08320 5.00371 5.46280 -0.52778 2.08000 11.63920 0.09785 -3.82527 -6.39221 11.59510 0.00000 0.00000 0.00000 -80.70000 -39.43900 -60.92060 2.63337 25.41480 -81.78810 40.33800 11.80430 9.70277 14.36690 0.97548 3.10840 76.04930 -11.39050 73.62940 5.29672 32.08500 101.06200 -2.37313 9.77277 4.69523 20.59020 -9.22506 5.11275 -3.50871 19.41450 8.75538 -5.29572 -1.69751 0.27093 -5.56513 -6.11028 -3.97535 -6.63992 0.95998 -2.95706 3.80921 38.93290 -5.24333 7.84892 -30.68390 1.32985 5.16715 19.71010 -14.76290 
18.86920 95.59610 -38.56490 -8.60903 -10.01460 -31.39140 4.99593 5.46665 -0.51215 2.02680 11.64660 0.14882 -3.70467 -5.96077 11.75880 0.00000 0.00000 0.00000 -80.69700 -39.38040 -61.11790 2.59491 25.21890 -81.56100 40.49890 11.74650 9.51631 14.38190 0.96970 3.07078 75.95540 -11.31140 73.36130 5.09857 31.97050 101.09600 -2.29914 9.77699 4.80791 20.57650 -9.32271 5.22943 -3.60121 20.03830 8.66799 -5.93644 0.00132 0.38193 -6.95977 -7.61051 -4.79449 -6.94701 0.96738 -2.88552 3.53177 39.25990 -4.73688 8.07727 -30.49190 1.36464 4.95301 19.10740 -14.84860 
19.26360 95.47740 -37.85610 -8.68417 -9.93325 -31.82480 4.92623 5.45942 -0.45935 1.95674 11.61850 0.25337 -3.49543 -5.41351 11.94960 0.00000 0.00000 0.00000 -80.80140 -39.46430 -61.32190 2.55264 25.13790 -81.45880 40.54090 11.70380 9.39035 14.41740 0.96797 3.05159 75.75530 -11.24420 73.07040 4.95504 31.81960 101.14800 -2.29650 9.77516 4.95800 20.63140 -9.36826 5.31638 -3.93738 20.57240 9.26865 -6.51719 1.74167 0.50894 -8.47548 -9.48163 -5.14332 -7.35098 0.94951 -2.73478 3.26654 39.48090 -4.13195 8.42798 -30.35190 1.42797 4.90731 18.93590 -15.10530 
19.68650 95.41270 -37.12190 -8.71444 -9.82165 -32.42280 4.79034 5.44768 -0.37911 1.88670 11.56440 0.39113 -3.29959 -4.84181 12.22200 0.00000 0.00000 0.00000 -81.09230 -39.80670 -61.57380 2.30003 25.19380 -81.44220 40.57210 11.64540 9.22185 14.43960 0.97229 3.07114 75.52200 -11.13550 72.83220 4.88911 31.68100 101.17900 -2.33930 9.76977 5.09915 20.69310 -9.30511 5.58084 -4.34616 21.03340 10.18180 -7.11333 3.15571 0.63674 -9.77407 -11.16550 -5.28358 -7.84136 0.89758 -2.49267 3.00511 39.57580 -3.43706 8.92489 -30.15010 1.51587 4.92016 18.92600 -15.35570 
20.13720 95.40970 -36.37060 -8.70985 -9.68439 -33.18490 4.59648 5.44407 -0.29196 1.83408 11.50990 0.52134 -3.24491 -4.32879 12.60400 0.00000 0.00000 0.00000 -81.67290 -40.48150 -61.97600 1.67221 25.37020 -81.43880 40.72860 11.53170 8.88272 14.41870 0.98299 3.13900 75.30350 -10.93360 72.69790 4.93782 31.58360 101.15200 -2.40031 9.76346 5.19333 20.69720 -9.12945 6.12878 -4.68261 21.46660 11.09790 -7.72145 4.02515 0.74726 -10.69840 -12.28530 -5.52366 -8.40997 0.80651 -2.17797 2.73613 39.53840 -2.65777 9.58455 -29.75210 1.61857 4.87941 18.80650 -15.40940 
